# xmcd
#
# Track frame offsets:
#  183
#  34458
#  65958
#  77733
#  101508
#  124233
#  141483
#  169608
#  198108
#  228858
#
# Disc length: 3436 seconds
#
# Revision: 0
# Processed by: cddbd v1.5.1PL2 Copyright (c) Steve Scherf et al.
# Submitted via: Collectorz.com_Music_Collector 6.9
#
DISCID=8c0d6a0a
DTITLE=Ray CHARLES - Ray Charles - A Man and His Music - CD 1 Live
DYEAR=1993
DGENRE=Blues - R&B - Soul
TTITLE0=Georgia On My Mind
TTITLE1=Come Rain Or Come Shine
TTITLE2=Alexander's Ragtime Band
TTITLE3=I'm Gonna Move To The Outskirts Of The Town
TTITLE4=Frenesi
TTITLE5=The Right Time
TTITLE6=Drown In My Own Tears
TTITLE7=Makin' Whoopee
TTITLE8=A Fool For You
TTITLE9=I Got A Woman
EXTD=
EXTT0=
EXTT1=
EXTT2=
EXTT3=
EXTT4=
EXTT5=
EXTT6=
EXTT7=
EXTT8=
EXTT9=
PLAYORDER=
